HIERARCHY
ROOT Hips
{
 OFFSET 0.000000 0.000000 0.000000
 CHANNELS 6 Xposition Yposition Zposition Yrotation Xrotation Zrotation
 JOINT Chest
 {
  OFFSET 0.000000 9.585900 0.002600
  CHANNELS 3 Yrotation Xrotation Zrotation
  JOINT Chest2
  {
   OFFSET 0.000000 9.601200 -0.005300
   CHANNELS 3 Yrotation Xrotation Zrotation
   JOINT Chest3
   {
    OFFSET 0.000000 9.561800 0.000000
    CHANNELS 3 Yrotation Xrotation Zrotation
    JOINT Chest4
    {
     OFFSET 0.000000 9.552100 0.000000
     CHANNELS 3 Yrotation Xrotation Zrotation
     JOINT Neck
     {
      OFFSET 0.000000 14.453000 0.000000
      CHANNELS 3 Yrotation Xrotation Zrotation
      JOINT Head
      {
       OFFSET 0.000000 8.936500 -0.011300
       CHANNELS 3 Yrotation Xrotation Zrotation
       End Site
       {
        OFFSET 0.000000 17.073600 -0.006000
       }
      }
     }
     JOINT RightCollar
     {
      OFFSET -2.921100 9.558500 0.000000
      CHANNELS 3 Yrotation Xrotation Zrotation
      JOINT RightShoulder
      {
       OFFSET -13.519700 0.000000 0.000000
       CHANNELS 3 Yrotation Xrotation Zrotation
       JOINT RightElbow
       {
        OFFSET 0.000000 -29.696600 0.000000
        CHANNELS 3 Yrotation Xrotation Zrotation
        JOINT RightWrist
        {
         OFFSET 0.000000 -24.004700 0.000000
         CHANNELS 3 Yrotation Xrotation Zrotation
         End Site
         {
          OFFSET 0.000000 -17.728500 0.000000
         }
        }
       }
      }
     }
     JOINT LeftCollar
     {
      OFFSET 2.921100 9.558500 0.000000
      CHANNELS 3 Yrotation Xrotation Zrotation
      JOINT LeftShoulder
      {
       OFFSET 13.519700 0.000000 0.000000
       CHANNELS 3 Yrotation Xrotation Zrotation
       JOINT LeftElbow
       {
        OFFSET 0.000000 -29.696600 0.000000
        CHANNELS 3 Yrotation Xrotation Zrotation
        JOINT LeftWrist
        {
         OFFSET 0.000000 -24.004700 0.000000
         CHANNELS 3 Yrotation Xrotation Zrotation
         End Site
         {
          OFFSET 0.000000 -17.728500 0.000000
         }
        }
       }
      }
     }
    }
   }
  }
 }
 JOINT RightHip
 {
  OFFSET -7.771700 -0.012900 -0.001300
  CHANNELS 3 Yrotation Xrotation Zrotation
  JOINT RightKnee
  {
   OFFSET 0.000000 -40.869800 0.001200
   CHANNELS 3 Yrotation Xrotation Zrotation
   JOINT RightAnkle
   {
    OFFSET 0.000000 -39.717900 0.002100
    CHANNELS 3 Yrotation Xrotation Zrotation
    JOINT RightToe
    {
     OFFSET 0.000000 -4.965400 11.033500
     CHANNELS 3 Yrotation Xrotation Zrotation
     End Site
     {
      OFFSET 0.000000 -1.423100 5.872300
     }
    }
   }
  }
 }
 JOINT LeftHip
 {
  OFFSET 7.771700 -0.012900 -0.001300
  CHANNELS 3 Yrotation Xrotation Zrotation
  JOINT LeftKnee
  {
   OFFSET 0.000000 -40.869800 0.001200
   CHANNELS 3 Yrotation Xrotation Zrotation
   JOINT LeftAnkle
   {
    OFFSET 0.000000 -39.717900 0.002100
    CHANNELS 3 Yrotation Xrotation Zrotation
    JOINT LeftToe
    {
     OFFSET 0.000000 -4.965400 11.033500
     CHANNELS 3 Yrotation Xrotation Zrotation
     End Site
     {
      OFFSET 0.000000 -1.423100 5.872300
     }
    }
   }
  }
 }
}
MOTION
Frames: 5
Frame Time: 0.008333
0.000000 85.388000 0.000000 0.000000 -5.767877 0.000000 0.000000 11.653817 0.000000 0.000000 -5.885947 0.000000 0.000000 -0.000000 0.000000 0.000000 -0.000000 0.000000 0.000000 12.528835 0.000000 0.000000 0.711642 0.000000 0.000000 -0.000000 0.000000 0.000000 0.000000 -90.000000 0.000000 -2.309062 0.000000 0.000000 2.309062 0.000000 0.000000 -0.000000 0.000000 0.000000 -0.000000 90.000000 0.000000 -2.309062 0.000000 0.000000 2.309062 0.000000 0.000000 8.520406 0.000000 0.000000 1.905762 0.000000 -0.000000 -4.658285 0.000000 0.000000 -0.000000 0.000000 0.000000 8.520406 0.000000 0.000000 1.905762 0.000000 -0.000000 -4.658285 0.000000 0.000000 -0.000000 0.000000
-6.438369 55.313032 21.541031 -178.988856 -19.600004 -1.486617 -0.009050 17.512807 0.596647 -0.014685 1.881511 0.082110 -0.021834 3.126104 0.149207 -0.041412 15.380318 0.718599 3.682569 18.565239 -0.437532 4.019578 -6.069863 -1.307083 3.681133 3.313142 1.623181 12.031504 -14.682376 -13.704796 -114.097591 -62.406557 158.155929 -6.865910 -46.885803 -15.615851 -6.590509 0.777834 0.487379 -8.067953 -19.792701 10.790423 82.860663 -56.805175 -134.478390 1.977201 -39.646817 19.848021 -1.255102 -55.234488 12.058610 -94.447056 87.098099 -98.785618 -10.714879 -21.642358 15.689551 0.051664 -0.137454 -0.012112 11.247882 -51.842343 -5.432110 110.085825 77.100482 107.396887 -8.334677 -23.476667 2.164011 0.112055 0.284280 0.053028
-6.436509 55.315278 21.541334 -178.970990 -19.659534 -1.487482 -0.025536 17.569744 0.593253 -0.018483 1.890285 0.092825 -0.020646 3.131892 0.139982 -0.058963 15.441901 0.718103 3.728843 18.806559 -0.435909 4.072429 -5.798732 -1.316710 3.709071 3.427533 1.608323 12.145060 -14.822856 -13.806953 -114.181886 -62.412804 158.299063 -6.822557 -46.885245 -15.689079 -6.572898 0.881341 0.461446 -8.232579 -19.869493 10.910840 82.764130 -56.844088 -134.439091 1.826969 -39.903829 20.068469 -1.270037 -55.172181 12.041909 -94.407628 87.100100 -98.750349 -10.689749 -21.636383 15.693875 0.030479 -0.145658 -0.012212 11.225983 -51.782224 -5.410255 110.073634 77.107229 107.377092 -8.335096 -23.472043 2.166436 0.105290 0.284660 0.055956
-6.435771 55.319193 21.538147 -178.947882 -19.751347 -1.481966 -0.052455 17.653875 0.586037 -0.022680 1.906505 0.092959 -0.021581 3.151479 0.139817 -0.072667 15.488688 0.711889 3.771656 19.041538 -0.434535 4.121567 -5.533814 -1.325732 3.742542 3.543776 1.591757 12.266799 -14.959984 -13.912529 -114.288569 -62.425013 158.461602 -6.761975 -46.866554 -15.777619 -6.554906 0.985931 0.441470 -8.379815 -19.945368 11.015449 82.602083 -56.861390 -134.351396 1.696277 -40.155269 20.276391 -1.274524 -55.075158 12.022409 -94.345562 87.092455 -98.677773 -10.796003 -21.622646 15.733640 0.041852 -0.142248 -0.020150 11.205352 -51.690268 -5.389628 110.074896 77.116333 107.375085 -8.354162 -23.452242 2.172624 0.110179 0.268936 0.058480
-6.434014 55.321206 21.541190 -178.942238 -19.811478 -1.475397 -0.061815 17.706678 0.581388 -0.029770 1.921455 0.093334 -0.017820 3.170840 0.139486 -0.094310 15.538114 0.705078 3.815902 19.268819 -0.432779 4.172190 -5.276529 -1.334618 3.784342 3.659816 1.572785 12.402350 -15.090835 -14.022197 -114.403146 -62.437911 158.621772 -6.706268 -46.827096 -15.863128 -6.534120 1.092618 0.429050 -8.507381 -20.022051 11.106398 82.404489 -56.862140 -134.235593 1.599535 -40.385410 20.463507 -1.284298 -55.013340 12.019281 -94.155091 87.088641 -98.466029 -10.941523 -21.604397 15.749320 0.026866 -0.132093 -0.015701 11.197206 -51.631850 -5.370582 110.075519 77.124696 107.370425 -8.358912 -23.442742 2.169049 0.117739 0.262862 0.064219
